<?xml version="1.0" encoding="UTF-8" standalone="no"?>
<!-- Created with Inkscape (http://www.inkscape.org/) -->

<svg
   xmlns:dc="http://purl.org/dc/elements/1.1/"
   xmlns:cc="http://creativecommons.org/ns#"
   xmlns:rdf="http://www.w3.org/1999/02/22-rdf-syntax-ns#"
   xmlns:svg="http://www.w3.org/2000/svg"
   xmlns="http://www.w3.org/2000/svg"
   xmlns:sodipodi="http://sodipodi.sourceforge.net/DTD/sodipodi-0.dtd"
   xmlns:inkscape="http://www.inkscape.org/namespaces/inkscape"
   width="744.09448819"
   height="1052.3622047"
   id="svg2"
   version="1.1"
   inkscape:version="0.48.3.1 r9886"
   sodipodi:docname="New document 1">
  <defs
     id="defs4" />
  <sodipodi:namedview
     id="base"
     pagecolor="#ffffff"
     bordercolor="#666666"
     borderopacity="1.0"
     inkscape:pageopacity="0.0"
     inkscape:pageshadow="2"
     inkscape:zoom="0.35"
     inkscape:cx="455"
     inkscape:cy="520"
     inkscape:document-units="px"
     inkscape:current-layer="layer1"
     showgrid="false"
     inkscape:window-width="818"
     inkscape:window-height="630"
     inkscape:window-x="166"
     inkscape:window-y="82"
     inkscape:window-maximized="0" />
  <metadata
     id="metadata7">
    <rdf:RDF>
      <cc:Work
         rdf:about="">
        <dc:format>image/svg+xml</dc:format>
        <dc:type
           rdf:resource="http://purl.org/dc/dcmitype/StillImage" />
        <dc:title></dc:title>
      </cc:Work>
    </rdf:RDF>
  </metadata>
  <g
     inkscape:label="Layer 1"
     inkscape:groupmode="layer"
     id="layer1">
    <path
       sodipodi:type="spiral"
       style="fill:none;stroke:#000000;stroke-width:35.3;stroke-linecap:butt;stroke-linejoin:miter;stroke-opacity:1;stroke-miterlimit:4;stroke-dasharray:none"
       id="path2985"
       sodipodi:cx="157.14285"
       sodipodi:cy="323.79074"
       sodipodi:expansion="1"
       sodipodi:revolution="3"
       sodipodi:radius="364.01392"
       sodipodi:argument="-18.019743"
       sodipodi:t0="0"
       d="m 157.14285,323.79074 c 12.31973,13.46574 -12.07343,23.25027 -22.38094,20.4762 -27.93273,-7.51756 -30.86187,-43.85404 -18.57146,-65.23809 21.98466,-38.25104 74.75946,-40.50109 108.09524,-16.66671 48.92159,34.9779 50.44773,106.09199 14.76197,150.95238 C 191.48414,473.10637 101.4705,473.84119 45.238131,426.17174 -25.524561,366.18461 -25.436174,257.03641 34.285649,189.50507 106.61678,107.71558 235.02033,108.64331 313.80946,180.45734 c 92.85027,84.63034 91.07424,232.3597 7.143,322.38096 C 224.05051,606.7714 56.950597,604.1417 -44.285647,508.07655 -159.3167,398.92122 -155.82988,212.4205 -47.619153,99.981296 73.776923,-26.158492 279.69987,-21.812231 403.33324,98.552534 540.58972,232.18024 535.38241,457.54113 402.85726,592.36207"
       transform="translate(191.42857,214.28571)"
       inkscape:export-xdpi="26.899376"
       inkscape:export-ydpi="26.899376" />
  </g>
</svg>
