<?xml version="1.0" encoding="UTF-8" standalone="no"?>
<!-- Created with Inkscape (http://www.inkscape.org/) -->

<svg
   xmlns:dc="http://purl.org/dc/elements/1.1/"
   xmlns:cc="http://creativecommons.org/ns#"
   xmlns:rdf="http://www.w3.org/1999/02/22-rdf-syntax-ns#"
   xmlns:svg="http://www.w3.org/2000/svg"
   xmlns="http://www.w3.org/2000/svg"
   xmlns:xlink="http://www.w3.org/1999/xlink"
   xmlns:sodipodi="http://sodipodi.sourceforge.net/DTD/sodipodi-0.dtd"
   xmlns:inkscape="http://www.inkscape.org/namespaces/inkscape"
   width="744.09448819"
   height="1052.3622047"
   id="svg2"
   version="1.1"
   inkscape:version="0.48.3.1 r9886"
   sodipodi:docname="starrySky.svg"
   inkscape:export-filename="/home/malloy/Documents/starrySky.png"
   inkscape:export-xdpi="90"
   inkscape:export-ydpi="90">
  <defs
     id="defs4" />
  <sodipodi:namedview
     id="base"
     pagecolor="#ffffff"
     bordercolor="#666666"
     borderopacity="1.0"
     inkscape:pageopacity="0.0"
     inkscape:pageshadow="2"
     inkscape:zoom="0.35"
     inkscape:cx="375"
     inkscape:cy="520"
     inkscape:document-units="px"
     inkscape:current-layer="layer1"
     showgrid="false"
     inkscape:window-width="983"
     inkscape:window-height="687"
     inkscape:window-x="2005"
     inkscape:window-y="152"
     inkscape:window-maximized="0" />
  <metadata
     id="metadata7">
    <rdf:RDF>
      <cc:Work
         rdf:about="">
        <dc:format>image/svg+xml</dc:format>
        <dc:type
           rdf:resource="http://purl.org/dc/dcmitype/StillImage" />
        <dc:title></dc:title>
      </cc:Work>
    </rdf:RDF>
  </metadata>
  <g
     inkscape:label="Layer 1"
     inkscape:groupmode="layer"
     id="layer1">
    <rect
       style="fill:#000080"
       id="rect2985"
       width="2060"
       height="1371.4286"
       x="-645.71429"
       y="-153.3521" />
    <path
       sodipodi:type="star"
       style="fill:#ffff00"
       id="path2987"
       sodipodi:sides="6"
       sodipodi:cx="-402.85715"
       sodipodi:cy="100.93361"
       sodipodi:r1="109.39537"
       sodipodi:r2="22.973028"
       sodipodi:arg1="0.71145913"
       sodipodi:arg2="1.2350579"
       inkscape:flatsided="false"
       inkscape:rounded="0.09"
       inkscape:randomized="0"
       d="m -320,172.36218 c -5.30258,6.15099 -67.62065,-52.41381 -75.2883,-49.73819 -7.66766,2.67562 -20.02103,87.29697 -27.99923,85.7803 -7.9782,-1.51668 11.58137,-84.76811 5.43038,-90.07068 -6.15098,-5.30258 -85.6119,26.30976 -88.28753,18.6421 -2.67562,-7.66765 79.20202,-32.35428 80.71869,-40.332482 1.51667,-7.978199 -65.59088,-60.987204 -60.2883,-67.138191 5.30257,-6.150987 67.62064,52.413814 75.2883,49.73819 7.66766,-2.675623 20.02103,-87.2969661 27.99923,-85.7802949 7.9782,1.5166712 -11.58137,84.7681009 -5.43039,90.0706769 6.15099,5.302575 85.61191,-26.309763 88.28753,-18.642105 2.67563,7.667659 -79.20201,32.354287 -80.71868,40.332486 -1.51668,7.9782 65.59087,60.9872 60.2883,67.13819 z"
       inkscape:transform-center-x="0.69194796"
       inkscape:transform-center-y="0.29875587"
       transform="matrix(0.04246096,-0.04419127,0.13217638,0.01419621,-479.28128,-13.37451)"
       inkscape:export-xdpi="6737.8501"
       inkscape:export-ydpi="6737.8501"
       inkscape:export-filename="/home/malloy/Documents/starrySky.png" />
    <use
       id="use2989"
       xlink:href="#path2987"
       x="0"
       y="0"
       width="744.09448"
       height="1052.3622"
       transform="translate(1150.9338,90.256932)" />
    <use
       id="use2991"
       xlink:href="#path2987"
       x="0"
       y="0"
       width="744.09448"
       height="1052.3622"
       transform="translate(707.86618,209.74181)" />
    <use
       id="use2993"
       xlink:href="#path2987"
       x="0"
       y="0"
       width="744.09448"
       height="1052.3622"
       transform="translate(592.05013,166.12701)" />
    <use
       id="use2995"
       xlink:href="#path2987"
       x="0"
       y="0"
       width="744.09448"
       height="1052.3622"
       transform="translate(445.25618,258.71777)" />
    <use
       id="use2997"
       xlink:href="#path2987"
       x="0"
       y="0"
       width="744.09448"
       height="1052.3622"
       transform="translate(1287.0288,239.47531)" />
    <use
       id="use2999"
       xlink:href="#path2987"
       x="0"
       y="0"
       width="744.09448"
       height="1052.3622"
       transform="translate(1652.2352,52.535659)" />
    <use
       id="use3001"
       xlink:href="#path2987"
       x="0"
       y="0"
       width="744.09448"
       height="1052.3622"
       transform="translate(1491.4831,503.3085)" />
    <use
       id="use3003"
       xlink:href="#path2987"
       x="0"
       y="0"
       width="744.09448"
       height="1052.3622"
       transform="translate(1313.4514,510.29093)" />
    <use
       id="use3005"
       xlink:href="#path2987"
       x="0"
       y="0"
       width="744.09448"
       height="1052.3622"
       transform="translate(1142.3845,721.80471)" />
    <use
       id="use3007"
       xlink:href="#path2987"
       x="0"
       y="0"
       width="744.09448"
       height="1052.3622"
       transform="translate(1081.758,701.02265)" />
    <use
       id="use3009"
       xlink:href="#path2987"
       x="0"
       y="0"
       width="744.09448"
       height="1052.3622"
       transform="translate(1138.3325,675.19216)" />
    <use
       id="use3011"
       xlink:href="#path2987"
       x="0"
       y="0"
       width="744.09448"
       height="1052.3622"
       transform="translate(1067.1493,829.89668)" />
    <use
       id="use3013"
       xlink:href="#path2987"
       x="0"
       y="0"
       width="744.09448"
       height="1052.3622"
       transform="translate(1014.496,802.72939)" />
    <use
       id="use3015"
       xlink:href="#path2987"
       x="0"
       y="0"
       width="744.09448"
       height="1052.3622"
       transform="translate(240.35797,881.68554)" />
    <use
       id="use3017"
       xlink:href="#path2987"
       x="0"
       y="0"
       width="744.09448"
       height="1052.3622"
       transform="translate(50.375758,786.78967)" />
    <use
       id="use3019"
       xlink:href="#path2987"
       x="0"
       y="0"
       width="744.09448"
       height="1052.3622"
       transform="translate(29.839003,880.65161)" />
    <use
       id="use3021"
       xlink:href="#path2987"
       x="0"
       y="0"
       width="744.09448"
       height="1052.3622"
       transform="translate(90.067761,960.92475)" />
    <use
       id="use3023"
       xlink:href="#path2987"
       x="0"
       y="0"
       width="744.09448"
       height="1052.3622"
       transform="translate(136.49934,906.534)" />
    <use
       id="use3025"
       xlink:href="#path2987"
       x="0"
       y="0"
       width="744.09448"
       height="1052.3622"
       transform="translate(1052.3687,556.73982)" />
    <use
       id="use3027"
       xlink:href="#path2987"
       x="0"
       y="0"
       width="744.09448"
       height="1052.3622"
       transform="translate(1499.9106,335.66131)" />
    <use
       id="use3029"
       xlink:href="#path2987"
       x="0"
       y="0"
       width="744.09448"
       height="1052.3622"
       transform="translate(1388.2459,217.4692)" />
    <use
       id="use3031"
       xlink:href="#path2987"
       x="0"
       y="0"
       width="744.09448"
       height="1052.3622"
       transform="translate(955.74037,91.874177)" />
    <use
       id="use3033"
       xlink:href="#path2987"
       x="0"
       y="0"
       width="744.09448"
       height="1052.3622"
       transform="translate(739.52441,340.92377)" />
    <use
       id="use3035"
       xlink:href="#path2987"
       x="0"
       y="0"
       width="744.09448"
       height="1052.3622"
       transform="translate(578.0607,389.33445)" />
    <use
       id="use3037"
       xlink:href="#path2987"
       x="0"
       y="0"
       width="744.09448"
       height="1052.3622"
       transform="translate(598.29026,526.52482)" />
    <use
       id="use3039"
       xlink:href="#path2987"
       x="0"
       y="0"
       width="744.09448"
       height="1052.3622"
       transform="translate(624.2502,456.10974)" />
    <use
       id="use3041"
       xlink:href="#path2987"
       x="0"
       y="0"
       width="744.09448"
       height="1052.3622"
       transform="translate(628.44315,432.73612)" />
    <use
       id="use3043"
       xlink:href="#path2987"
       x="0"
       y="0"
       width="744.09448"
       height="1052.3622"
       transform="translate(654.45145,459.07613)" />
    <use
       id="use3045"
       xlink:href="#path2987"
       x="0"
       y="0"
       width="744.09448"
       height="1052.3622"
       transform="translate(524.07578,293.37109)" />
    <use
       id="use3047"
       xlink:href="#path2987"
       x="0"
       y="0"
       width="744.09448"
       height="1052.3622"
       transform="translate(311.97356,236.03611)" />
    <use
       id="use3049"
       xlink:href="#path2987"
       x="0"
       y="0"
       width="744.09448"
       height="1052.3622"
       transform="translate(113.12145,579.90433)" />
    <use
       id="use3051"
       xlink:href="#path2987"
       x="0"
       y="0"
       width="744.09448"
       height="1052.3622"
       transform="translate(92.653058,763.69698)" />
    <use
       id="use3053"
       xlink:href="#path2987"
       x="0"
       y="0"
       width="744.09448"
       height="1052.3622"
       transform="translate(821.37074,768.91886)" />
    <use
       id="use3055"
       xlink:href="#path2987"
       x="0"
       y="0"
       width="744.09448"
       height="1052.3622"
       transform="translate(851.55024,664.39734)" />
    <use
       id="use3057"
       xlink:href="#path2987"
       x="0"
       y="0"
       width="744.09448"
       height="1052.3622"
       transform="translate(778.83315,426.55482)" />
    <use
       id="use3059"
       xlink:href="#path2987"
       x="0"
       y="0"
       width="744.09448"
       height="1052.3622"
       transform="translate(575.5824,348.93075)" />
    <use
       id="use3061"
       xlink:href="#path2987"
       x="0"
       y="0"
       width="744.09448"
       height="1052.3622"
       transform="translate(414.40069,402.12857)" />
    <use
       id="use3063"
       xlink:href="#path2987"
       x="0"
       y="0"
       width="744.09448"
       height="1052.3622"
       transform="translate(164.81292,434.97658)" />
    <use
       id="use3065"
       xlink:href="#path2987"
       x="0"
       y="0"
       width="744.09448"
       height="1052.3622"
       transform="translate(240.18377,727.73706)" />
    <use
       id="use3067"
       xlink:href="#path2987"
       x="0"
       y="0"
       width="744.09448"
       height="1052.3622"
       transform="translate(233.53707,865.51619)" />
    <use
       id="use3069"
       xlink:href="#path2987"
       x="0"
       y="0"
       width="744.09448"
       height="1052.3622"
       transform="translate(474.15002,759.4634)" />
    <use
       id="use3071"
       xlink:href="#path2987"
       x="0"
       y="0"
       width="744.09448"
       height="1052.3622"
       transform="translate(562.57657,622.08098)" />
    <use
       id="use3073"
       xlink:href="#path2987"
       x="0"
       y="0"
       width="744.09448"
       height="1052.3622"
       transform="translate(880.166,546.87486)" />
    <use
       id="use3075"
       xlink:href="#path2987"
       x="0"
       y="0"
       width="744.09448"
       height="1052.3622"
       transform="translate(811.95838,224.9977)" />
    <use
       id="use3077"
       xlink:href="#path2987"
       x="0"
       y="0"
       width="744.09448"
       height="1052.3622"
       transform="translate(308.08625,168.51007)" />
    <use
       id="use3079"
       xlink:href="#path2987"
       x="0"
       y="0"
       width="744.09448"
       height="1052.3622"
       transform="translate(169.19227,403.41808)" />
    <use
       id="use3081"
       xlink:href="#path2987"
       x="0"
       y="0"
       width="744.09448"
       height="1052.3622"
       transform="translate(50.89149,739.32724)" />
    <use
       id="use3083"
       xlink:href="#path2987"
       x="0"
       y="0"
       width="744.09448"
       height="1052.3622"
       transform="translate(373.52153,938.58162)" />
    <use
       id="use3085"
       xlink:href="#path2987"
       x="0"
       y="0"
       width="744.09448"
       height="1052.3622"
       transform="translate(537.21829,966.80206)" />
    <use
       id="use3087"
       xlink:href="#path2987"
       x="0"
       y="0"
       width="744.09448"
       height="1052.3622"
       transform="translate(1310.5504,735.62907)" />
    <use
       id="use3089"
       xlink:href="#path2987"
       x="0"
       y="0"
       width="744.09448"
       height="1052.3622"
       transform="translate(1568.348,710.41143)" />
    <use
       id="use3091"
       xlink:href="#path2987"
       x="0"
       y="0"
       width="744.09448"
       height="1052.3622"
       transform="translate(1901.8193,876.97774)" />
    <use
       id="use3093"
       xlink:href="#path2987"
       x="0"
       y="0"
       width="744.09448"
       height="1052.3622"
       transform="translate(1987.0922,960.15409)" />
    <use
       id="use3095"
       xlink:href="#path2987"
       x="0"
       y="0"
       width="744.09448"
       height="1052.3622"
       transform="translate(1957.6041,1088.8098)" />
    <use
       id="use3097"
       xlink:href="#path2987"
       x="0"
       y="0"
       width="744.09448"
       height="1052.3622"
       transform="translate(1977.8435,1089.6999)" />
    <use
       id="use3099"
       xlink:href="#path2987"
       x="0"
       y="0"
       width="744.09448"
       height="1052.3622"
       transform="translate(1951.277,1071.1344)" />
    <use
       id="use3101"
       xlink:href="#path2987"
       x="0"
       y="0"
       width="744.09448"
       height="1052.3622"
       transform="translate(2033.8681,1031.6799)" />
    <use
       id="use3103"
       xlink:href="#path2987"
       x="0"
       y="0"
       width="744.09448"
       height="1052.3622"
       transform="translate(1980.1511,1151.7954)" />
    <use
       id="use3105"
       xlink:href="#path2987"
       x="0"
       y="0"
       width="744.09448"
       height="1052.3622"
       transform="translate(1586.7078,1127.9671)" />
    <use
       id="use3107"
       xlink:href="#path2987"
       x="0"
       y="0"
       width="744.09448"
       height="1052.3622"
       transform="translate(1172.0924,1165.2509)" />
    <use
       id="use3109"
       xlink:href="#path2987"
       x="0"
       y="0"
       width="744.09448"
       height="1052.3622"
       transform="translate(848.39636,1054.9321)" />
    <use
       id="use3111"
       xlink:href="#path2987"
       x="0"
       y="0"
       width="744.09448"
       height="1052.3622"
       transform="translate(677.92333,1007.4724)" />
    <use
       id="use3113"
       xlink:href="#path2987"
       x="0"
       y="0"
       width="744.09448"
       height="1052.3622"
       transform="translate(501.09621,984.22187)" />
    <use
       id="use3115"
       xlink:href="#path2987"
       x="0"
       y="0"
       width="744.09448"
       height="1052.3622"
       transform="translate(441.343,1065.3513)" />
    <use
       id="use3117"
       xlink:href="#path2987"
       x="0"
       y="0"
       width="744.09448"
       height="1052.3622"
       transform="translate(512.33333,1047.4823)" />
    <use
       id="use3119"
       xlink:href="#path2987"
       x="0"
       y="0"
       width="744.09448"
       height="1052.3622"
       transform="translate(525.43205,995.77859)" />
    <use
       id="use3121"
       xlink:href="#path2987"
       x="0"
       y="0"
       width="744.09448"
       height="1052.3622"
       transform="translate(528.0237,1039.2396)" />
    <use
       id="use3123"
       xlink:href="#path2987"
       x="0"
       y="0"
       width="744.09448"
       height="1052.3622"
       transform="translate(502.95962,1062.0018)" />
    <use
       id="use3125"
       xlink:href="#path2987"
       x="0"
       y="0"
       width="744.09448"
       height="1052.3622"
       transform="translate(720.26229,1122.8614)" />
    <use
       id="use3127"
       xlink:href="#path2987"
       x="0"
       y="0"
       width="744.09448"
       height="1052.3622"
       transform="translate(952.52723,1135.1795)" />
    <use
       id="use3129"
       xlink:href="#path2987"
       x="0"
       y="0"
       width="744.09448"
       height="1052.3622"
       transform="translate(1145.5937,1065.0893)" />
    <use
       id="use3131"
       xlink:href="#path2987"
       x="0"
       y="0"
       width="744.09448"
       height="1052.3622"
       transform="translate(1398.7741,1143.4814)" />
    <use
       id="use3133"
       xlink:href="#path2987"
       x="0"
       y="0"
       width="744.09448"
       height="1052.3622"
       transform="translate(1754.8019,1104.9897)" />
    <use
       id="use3135"
       xlink:href="#path2987"
       x="0"
       y="0"
       width="744.09448"
       height="1052.3622"
       transform="translate(1838.5873,1047.8199)" />
    <use
       id="use3137"
       xlink:href="#path2987"
       x="0"
       y="0"
       width="744.09448"
       height="1052.3622"
       transform="translate(1827.0853,1128.982)" />
    <use
       id="use3139"
       xlink:href="#path2987"
       x="0"
       y="0"
       width="744.09448"
       height="1052.3622"
       transform="translate(1977.3106,918.84876)" />
    <use
       id="use3141"
       xlink:href="#path2987"
       x="0"
       y="0"
       width="744.09448"
       height="1052.3622"
       transform="translate(2206.0507,706.19841)" />
    <use
       id="use3143"
       xlink:href="#path2987"
       x="0"
       y="0"
       width="744.09448"
       height="1052.3622"
       transform="translate(2060.5223,604.70205)" />
    <use
       id="use3145"
       xlink:href="#path2987"
       x="0"
       y="0"
       width="744.09448"
       height="1052.3622"
       transform="translate(1973.3486,325.67161)" />
    <use
       id="use3147"
       xlink:href="#path2987"
       x="0"
       y="0"
       width="744.09448"
       height="1052.3622"
       transform="translate(2016.856,467.19664)" />
    <use
       id="use3149"
       xlink:href="#path2987"
       x="0"
       y="0"
       width="744.09448"
       height="1052.3622"
       transform="translate(1925.6458,548.46352)" />
    <use
       id="use3151"
       xlink:href="#path2987"
       x="0"
       y="0"
       width="744.09448"
       height="1052.3622"
       transform="translate(1789.7075,671.00458)" />
    <use
       id="use3153"
       xlink:href="#path2987"
       x="0"
       y="0"
       width="744.09448"
       height="1052.3622"
       transform="translate(1774.3109,1000.4946)" />
    <use
       id="use3155"
       xlink:href="#path2987"
       x="0"
       y="0"
       width="744.09448"
       height="1052.3622"
       transform="translate(1668.2517,979.04789)" />
    <use
       id="use3157"
       xlink:href="#path2987"
       x="0"
       y="0"
       width="744.09448"
       height="1052.3622"
       transform="translate(1668.198,965.51693)" />
    <use
       id="use3159"
       xlink:href="#path2987"
       x="0"
       y="0"
       width="744.09448"
       height="1052.3622"
       transform="translate(1679.8755,807.18032)" />
    <use
       id="use3161"
       xlink:href="#path2987"
       x="0"
       y="0"
       width="744.09448"
       height="1052.3622"
       transform="translate(1895.8275,472.10296)" />
    <use
       id="use3163"
       xlink:href="#path2987"
       x="0"
       y="0"
       width="744.09448"
       height="1052.3622"
       transform="translate(1817.681,393.03477)" />
    <use
       id="use3165"
       xlink:href="#path2987"
       x="0"
       y="0"
       width="744.09448"
       height="1052.3622"
       transform="translate(1742.066,641.1245)" />
    <use
       id="use3167"
       xlink:href="#path2987"
       x="0"
       y="0"
       width="744.09448"
       height="1052.3622"
       transform="translate(1678.8871,658.51772)" />
    <use
       id="use3169"
       xlink:href="#path2987"
       x="0"
       y="0"
       width="744.09448"
       height="1052.3622"
       transform="translate(1682.5314,611.87443)" />
    <use
       id="use3171"
       xlink:href="#path2987"
       x="0"
       y="0"
       width="744.09448"
       height="1052.3622"
       transform="translate(1789.1272,396.42888)" />
    <use
       id="use3173"
       xlink:href="#path2987"
       x="0"
       y="0"
       width="744.09448"
       height="1052.3622"
       transform="translate(1681.2791,137.27571)" />
    <use
       id="use3175"
       xlink:href="#path2987"
       x="0"
       y="0"
       width="744.09448"
       height="1052.3622"
       transform="translate(1609.4764,110.83177)" />
    <use
       id="use3177"
       xlink:href="#path2987"
       x="0"
       y="0"
       width="744.09448"
       height="1052.3622"
       transform="translate(1611.9016,155.30093)" />
    <use
       id="use3179"
       xlink:href="#path2987"
       x="0"
       y="0"
       width="744.09448"
       height="1052.3622"
       transform="translate(1633.4282,142.80173)" />
    <use
       id="use3181"
       xlink:href="#path2987"
       x="0"
       y="0"
       width="744.09448"
       height="1052.3622"
       transform="translate(1618.2715,279.2891)" />
    <use
       id="use3183"
       xlink:href="#path2987"
       x="0"
       y="0"
       width="744.09448"
       height="1052.3622"
       transform="translate(1614.1554,167.97743)" />
    <use
       id="use3185"
       xlink:href="#path2987"
       x="0"
       y="0"
       width="744.09448"
       height="1052.3622"
       transform="translate(1671.3109,178.31281)" />
    <use
       id="use3187"
       xlink:href="#path2987"
       x="0"
       y="0"
       width="744.09448"
       height="1052.3622"
       transform="translate(1617.9069,213.87549)" />
    <use
       id="use3189"
       xlink:href="#path2987"
       x="0"
       y="0"
       width="744.09448"
       height="1052.3622"
       transform="translate(1671.0242,78.057224)" />
    <use
       id="use3191"
       xlink:href="#path2987"
       x="0"
       y="0"
       width="744.09448"
       height="1052.3622"
       transform="translate(1537.1779,56.571575)" />
    <use
       id="use3193"
       xlink:href="#path2987"
       x="0"
       y="0"
       width="744.09448"
       height="1052.3622"
       transform="translate(1360.6053,106.5819)" />
    <use
       id="use3195"
       xlink:href="#path2987"
       x="0"
       y="0"
       width="744.09448"
       height="1052.3622"
       transform="translate(1080.3304,209.52798)" />
    <use
       id="use3197"
       xlink:href="#path2987"
       x="0"
       y="0"
       width="744.09448"
       height="1052.3622"
       transform="translate(956.31798,143.61563)" />
    <use
       id="use3199"
       xlink:href="#path2987"
       x="0"
       y="0"
       width="744.09448"
       height="1052.3622"
       transform="translate(629.51709,134.09923)" />
    <use
       id="use3201"
       xlink:href="#path2987"
       x="0"
       y="0"
       width="744.09448"
       height="1052.3622"
       transform="translate(510.75382,105.39529)" />
    <use
       id="use3203"
       xlink:href="#path2987"
       x="0"
       y="0"
       width="744.09448"
       height="1052.3622"
       transform="translate(500.50846,163.02008)" />
    <use
       id="use3205"
       xlink:href="#path2987"
       x="0"
       y="0"
       width="744.09448"
       height="1052.3622"
       transform="translate(430.07647,91.403583)" />
    <use
       id="use3207"
       xlink:href="#path2987"
       x="0"
       y="0"
       width="744.09448"
       height="1052.3622"
       transform="translate(146.26918,-78.823749)" />
    <use
       id="use3209"
       xlink:href="#path2987"
       x="0"
       y="0"
       width="744.09448"
       height="1052.3622"
       transform="translate(-3.3296388,-8.110023)" />
    <use
       id="use3211"
       xlink:href="#path2987"
       x="0"
       y="0"
       width="744.09448"
       height="1052.3622"
       transform="translate(-161.59576,-122.82139)" />
    <use
       id="use3213"
       xlink:href="#path2987"
       x="0"
       y="0"
       width="744.09448"
       height="1052.3622"
       transform="translate(-262.79562,-235.96527)" />
    <use
       id="use3215"
       xlink:href="#path2987"
       x="0"
       y="0"
       width="744.09448"
       height="1052.3622"
       transform="translate(-349.05975,-115.26341)" />
    <use
       id="use3217"
       xlink:href="#path2987"
       x="0"
       y="0"
       width="744.09448"
       height="1052.3622"
       transform="translate(-287.79425,-187.70897)" />
    <use
       id="use3219"
       xlink:href="#path2987"
       x="0"
       y="0"
       width="744.09448"
       height="1052.3622"
       transform="translate(-305.95053,-119.82972)" />
    <use
       id="use3221"
       xlink:href="#path2987"
       x="0"
       y="0"
       width="744.09448"
       height="1052.3622"
       transform="translate(-41.653934,-146.77528)" />
    <use
       id="use3223"
       xlink:href="#path2987"
       x="0"
       y="0"
       width="744.09448"
       height="1052.3622"
       transform="translate(47.598519,-122.46887)" />
    <use
       id="use3225"
       xlink:href="#path2987"
       x="0"
       y="0"
       width="744.09448"
       height="1052.3622"
       transform="translate(919.5439,-125.12816)" />
    <use
       id="use3227"
       xlink:href="#path2987"
       x="0"
       y="0"
       width="744.09448"
       height="1052.3622"
       transform="translate(1253.6248,-109.89211)" />
    <use
       id="use3229"
       xlink:href="#path2987"
       x="0"
       y="0"
       width="744.09448"
       height="1052.3622"
       transform="translate(1337.9481,-207.11202)" />
    <use
       id="use3231"
       xlink:href="#path2987"
       x="0"
       y="0"
       width="744.09448"
       height="1052.3622"
       transform="translate(1338.6795,-167.70461)" />
    <use
       id="use3233"
       xlink:href="#path2987"
       x="0"
       y="0"
       width="744.09448"
       height="1052.3622"
       transform="translate(1470.8864,-97.881374)" />
    <use
       id="use3235"
       xlink:href="#path2987"
       x="0"
       y="0"
       width="744.09448"
       height="1052.3622"
       transform="translate(1559.7391,-136.27399)" />
    <use
       id="use3237"
       xlink:href="#path2987"
       x="0"
       y="0"
       width="744.09448"
       height="1052.3622"
       transform="translate(1464.7621,-79.847618)" />
    <use
       id="use3239"
       xlink:href="#path2987"
       x="0"
       y="0"
       width="744.09448"
       height="1052.3622"
       transform="translate(1456.533,-40.115967)" />
    <use
       id="use3241"
       xlink:href="#path2987"
       x="0"
       y="0"
       width="744.09448"
       height="1052.3622"
       transform="translate(1495.1552,-47.101115)" />
    <use
       id="use3243"
       xlink:href="#path2987"
       x="0"
       y="0"
       width="744.09448"
       height="1052.3622"
       transform="translate(1254.4159,22.607346)" />
    <use
       id="use3245"
       xlink:href="#path2987"
       x="0"
       y="0"
       width="744.09448"
       height="1052.3622"
       transform="translate(948.91354,30.408865)" />
    <use
       id="use3247"
       xlink:href="#path2987"
       x="0"
       y="0"
       width="744.09448"
       height="1052.3622"
       transform="translate(660.49212,-8.9507511)" />
    <use
       id="use3249"
       xlink:href="#path2987"
       x="0"
       y="0"
       width="744.09448"
       height="1052.3622"
       transform="translate(487.50022,42.009736)" />
    <use
       id="use3251"
       xlink:href="#path2987"
       x="0"
       y="0"
       width="744.09448"
       height="1052.3622"
       transform="translate(415.17013,-87.486175)" />
    <use
       id="use3253"
       xlink:href="#path2987"
       x="0"
       y="0"
       width="744.09448"
       height="1052.3622"
       transform="translate(412.95635,4.0597992)" />
    <use
       id="use3255"
       xlink:href="#path2987"
       x="0"
       y="0"
       width="744.09448"
       height="1052.3622"
       transform="translate(234.47775,-39.446236)" />
    <use
       id="use3257"
       xlink:href="#path2987"
       x="0"
       y="0"
       width="744.09448"
       height="1052.3622"
       transform="translate(215.86356,-79.253451)" />
    <use
       id="use3259"
       xlink:href="#path2987"
       x="0"
       y="0"
       width="744.09448"
       height="1052.3622"
       transform="translate(128.61783,31.569111)" />
    <use
       id="use3261"
       xlink:href="#path2987"
       x="0"
       y="0"
       width="744.09448"
       height="1052.3622"
       transform="translate(94.406798,-50.232755)" />
    <use
       id="use3263"
       xlink:href="#path2987"
       x="0"
       y="0"
       width="744.09448"
       height="1052.3622"
       transform="translate(6.2772422,-88.762403)" />
    <use
       id="use3265"
       xlink:href="#path2987"
       x="0"
       y="0"
       width="744.09448"
       height="1052.3622"
       transform="translate(49.519949,-44.324684)" />
    <use
       id="use3267"
       xlink:href="#path2987"
       x="0"
       y="0"
       width="744.09448"
       height="1052.3622"
       transform="translate(-85.348278,-1.0551834)" />
    <use
       id="use3269"
       xlink:href="#path2987"
       x="0"
       y="0"
       width="744.09448"
       height="1052.3622"
       transform="translate(-84.022753,56.166166)" />
    <use
       id="use3271"
       xlink:href="#path2987"
       x="0"
       y="0"
       width="744.09448"
       height="1052.3622"
       transform="translate(-29.279823,127.09259)" />
    <use
       id="use3273"
       xlink:href="#path2987"
       x="0"
       y="0"
       width="744.09448"
       height="1052.3622"
       transform="translate(-77.130402,104.03289)" />
    <use
       id="use3275"
       xlink:href="#path2987"
       x="0"
       y="0"
       width="744.09448"
       height="1052.3622"
       transform="translate(-48.302104,125.73264)" />
    <use
       id="use3277"
       xlink:href="#path2987"
       x="0"
       y="0"
       width="744.09448"
       height="1052.3622"
       transform="translate(45.013186,274.13725)" />
    <use
       id="use3279"
       xlink:href="#path2987"
       x="0"
       y="0"
       width="744.09448"
       height="1052.3622"
       transform="translate(126.92585,483.33737)" />
    <use
       id="use3281"
       xlink:href="#path2987"
       x="0"
       y="0"
       width="744.09448"
       height="1052.3622"
       transform="translate(-9.2240097,404.62952)" />
    <use
       id="use3283"
       xlink:href="#path2987"
       x="0"
       y="0"
       width="744.09448"
       height="1052.3622"
       transform="translate(-28.629174,-75.793592)" />
    <use
       id="use3285"
       xlink:href="#path2987"
       x="0"
       y="0"
       width="744.09448"
       height="1052.3622"
       transform="translate(-18.599421,8.6285562)" />
    <use
       id="use3287"
       xlink:href="#path2987"
       x="0"
       y="0"
       width="744.09448"
       height="1052.3622"
       transform="translate(-58.983984,-83.658575)" />
    <use
       id="use3289"
       xlink:href="#path2987"
       x="0"
       y="0"
       width="744.09448"
       height="1052.3622"
       transform="translate(-101.57799,118.15705)" />
    <use
       id="use3291"
       xlink:href="#path2987"
       x="0"
       y="0"
       width="744.09448"
       height="1052.3622"
       transform="translate(-133.0679,575.03903)" />
    <use
       id="use3293"
       xlink:href="#path2987"
       x="0"
       y="0"
       width="744.09448"
       height="1052.3622"
       transform="translate(-52.920793,670.01673)" />
    <use
       id="use3295"
       xlink:href="#path2987"
       x="0"
       y="0"
       width="744.09448"
       height="1052.3622"
       transform="translate(-117.98985,676.75454)" />
    <use
       id="use3297"
       xlink:href="#path2987"
       x="0"
       y="0"
       width="744.09448"
       height="1052.3622"
       transform="translate(-38.869337,616.51241)" />
    <use
       id="use3299"
       xlink:href="#path2987"
       x="0"
       y="0"
       width="744.09448"
       height="1052.3622"
       transform="translate(-138.39416,606.20589)" />
    <use
       id="use3301"
       xlink:href="#path2987"
       x="0"
       y="0"
       width="744.09448"
       height="1052.3622"
       transform="translate(5.9561106,532.4147)" />
    <use
       id="use3303"
       xlink:href="#path2987"
       x="0"
       y="0"
       width="744.09448"
       height="1052.3622"
       transform="translate(-61.675781,453.13363)" />
    <use
       id="use3305"
       xlink:href="#path2987"
       x="0"
       y="0"
       width="744.09448"
       height="1052.3622"
       transform="translate(-38.793701,472.38569)" />
    <use
       id="use3307"
       xlink:href="#path2987"
       x="0"
       y="0"
       width="744.09448"
       height="1052.3622"
       transform="translate(-146.78787,862.32298)" />
    <use
       id="use3309"
       xlink:href="#path2987"
       x="0"
       y="0"
       width="744.09448"
       height="1052.3622"
       transform="translate(-83.570592,967.94523)" />
    <use
       id="use3311"
       xlink:href="#path2987"
       x="0"
       y="0"
       width="744.09448"
       height="1052.3622"
       transform="translate(-61.688142,1180.7164)" />
    <use
       id="use3313"
       xlink:href="#path2987"
       x="0"
       y="0"
       width="744.09448"
       height="1052.3622"
       transform="translate(23.164306,1301.6402)" />
    <use
       id="use3315"
       xlink:href="#path2987"
       x="0"
       y="0"
       width="744.09448"
       height="1052.3622"
       transform="translate(-128.8692,1268.6692)" />
    <use
       id="use3317"
       xlink:href="#path2987"
       x="0"
       y="0"
       width="744.09448"
       height="1052.3622"
       transform="translate(-55.193406,1256.6676)" />
    <use
       id="use3319"
       xlink:href="#path2987"
       x="0"
       y="0"
       width="744.09448"
       height="1052.3622"
       transform="translate(766.1223,1134.2812)" />
    <use
       id="use3321"
       xlink:href="#path2987"
       x="0"
       y="0"
       width="744.09448"
       height="1052.3622"
       transform="translate(962.45226,1139.4381)" />
    <use
       id="use3323"
       xlink:href="#path2987"
       x="0"
       y="0"
       width="744.09448"
       height="1052.3622"
       transform="translate(1041.9979,1162.2961)" />
    <use
       id="use3325"
       xlink:href="#path2987"
       x="0"
       y="0"
       width="744.09448"
       height="1052.3622"
       transform="translate(842.96282,1171.6839)" />
    <use
       id="use3327"
       xlink:href="#path2987"
       x="0"
       y="0"
       width="744.09448"
       height="1052.3622"
       transform="translate(924.6597,1161.4624)" />
    <use
       id="use3329"
       xlink:href="#path2987"
       x="0"
       y="0"
       width="744.09448"
       height="1052.3622"
       transform="translate(859.93458,1140.204)" />
    <use
       id="use3331"
       xlink:href="#path2987"
       x="0"
       y="0"
       width="744.09448"
       height="1052.3622"
       transform="translate(456.88124,1182.1703)" />
    <use
       id="use3333"
       xlink:href="#path2987"
       x="0"
       y="0"
       width="744.09448"
       height="1052.3622"
       transform="translate(221.36473,1176.5102)" />
    <use
       id="use3335"
       xlink:href="#path2987"
       x="0"
       y="0"
       width="744.09448"
       height="1052.3622"
       transform="translate(1.9569669,1114.2934)" />
    <use
       id="use3337"
       xlink:href="#path2987"
       x="0"
       y="0"
       width="744.09448"
       height="1052.3622"
       transform="translate(-61.892047,1202.6718)" />
    <use
       id="use3339"
       xlink:href="#path2987"
       x="0"
       y="0"
       width="744.09448"
       height="1052.3622"
       transform="translate(0.41341637,1069.4331)" />
    <use
       id="use3341"
       xlink:href="#path2987"
       x="0"
       y="0"
       width="744.09448"
       height="1052.3622"
       transform="translate(-80.904063,1210.7867)" />
    <use
       id="use3343"
       xlink:href="#path2987"
       x="0"
       y="0"
       width="744.09448"
       height="1052.3622"
       transform="translate(-40.402575,1217.7641)" />
    <use
       id="use3345"
       xlink:href="#path2987"
       x="0"
       y="0"
       width="744.09448"
       height="1052.3622"
       transform="translate(-128.47258,1142.1934)" />
    <use
       id="use3347"
       xlink:href="#path2987"
       x="0"
       y="0"
       width="744.09448"
       height="1052.3622"
       transform="translate(-146.27998,1153.6269)" />
    <use
       id="use3349"
       xlink:href="#path2987"
       x="0"
       y="0"
       width="744.09448"
       height="1052.3622"
       transform="translate(-157.76036,1071.5462)" />
    <use
       id="use3351"
       xlink:href="#path2987"
       x="0"
       y="0"
       width="744.09448"
       height="1052.3622"
       transform="translate(-66.637383,953.44962)" />
    <use
       id="use3353"
       xlink:href="#path2987"
       x="0"
       y="0"
       width="744.09448"
       height="1052.3622"
       transform="translate(-157.78764,837.53964)" />
    <use
       id="use3355"
       xlink:href="#path2987"
       x="0"
       y="0"
       width="744.09448"
       height="1052.3622"
       transform="translate(-14.444805,727.34078)" />
    <use
       id="use3357"
       xlink:href="#path2987"
       x="0"
       y="0"
       width="744.09448"
       height="1052.3622"
       transform="translate(397.91979,878.12566)" />
    <use
       id="use3359"
       xlink:href="#path2987"
       x="0"
       y="0"
       width="744.09448"
       height="1052.3622"
       transform="translate(584.37933,921.80441)" />
    <use
       id="use3361"
       xlink:href="#path2987"
       x="0"
       y="0"
       width="744.09448"
       height="1052.3622"
       transform="translate(1162.186,1123.0358)" />
    <use
       id="use3363"
       xlink:href="#path2987"
       x="0"
       y="0"
       width="744.09448"
       height="1052.3622"
       transform="translate(1520.3793,1093.4501)" />
    <use
       id="use3365"
       xlink:href="#path2987"
       x="0"
       y="0"
       width="744.09448"
       height="1052.3622"
       transform="translate(1553.623,1110.1842)" />
    <use
       id="use3367"
       xlink:href="#path2987"
       x="0"
       y="0"
       width="744.09448"
       height="1052.3622"
       transform="translate(1834.7322,1146.5221)" />
    <use
       id="use3369"
       xlink:href="#path2987"
       x="0"
       y="0"
       width="744.09448"
       height="1052.3622"
       transform="translate(1901.8025,1148.0413)" />
    <use
       id="use3371"
       xlink:href="#path2987"
       x="0"
       y="0"
       width="744.09448"
       height="1052.3622"
       transform="translate(2162.029,897.79127)" />
    <use
       id="use3373"
       xlink:href="#path2987"
       x="0"
       y="0"
       width="744.09448"
       height="1052.3622"
       transform="translate(2172.3461,945.57602)" />
    <use
       id="use3375"
       xlink:href="#path2987"
       x="0"
       y="0"
       width="744.09448"
       height="1052.3622"
       transform="translate(2140.2112,820.13166)" />
    <use
       id="use3377"
       xlink:href="#path2987"
       x="0"
       y="0"
       width="744.09448"
       height="1052.3622"
       transform="translate(2257.6059,825.47344)" />
    <use
       id="use3379"
       xlink:href="#path2987"
       x="0"
       y="0"
       width="744.09448"
       height="1052.3622"
       transform="translate(2136.1709,785.38382)" />
    <use
       id="use3381"
       xlink:href="#path2987"
       x="0"
       y="0"
       width="744.09448"
       height="1052.3622"
       transform="translate(1873.8842,501.56399)" />
    <use
       id="use3383"
       xlink:href="#path2987"
       x="0"
       y="0"
       width="744.09448"
       height="1052.3622"
       transform="translate(1729.6735,488.17024)" />
    <use
       id="use3385"
       xlink:href="#path2987"
       x="0"
       y="0"
       width="744.09448"
       height="1052.3622"
       transform="translate(803.89505,388.26662)" />
    <use
       id="use3387"
       xlink:href="#path2987"
       x="0"
       y="0"
       width="744.09448"
       height="1052.3622"
       transform="translate(612.24583,475.8307)" />
    <use
       id="use3389"
       xlink:href="#path2987"
       x="0"
       y="0"
       width="744.09448"
       height="1052.3622"
       transform="translate(562.28712,570.80656)" />
    <use
       id="use3391"
       xlink:href="#path2987"
       x="0"
       y="0"
       width="744.09448"
       height="1052.3622"
       transform="translate(708.39652,759.57023)" />
    <use
       id="use3393"
       xlink:href="#path2987"
       x="0"
       y="0"
       width="744.09448"
       height="1052.3622"
       transform="translate(907.10739,747.97248)" />
    <use
       id="use3395"
       xlink:href="#path2987"
       x="0"
       y="0"
       width="744.09448"
       height="1052.3622"
       transform="translate(1120.6893,764.48819)" />
    <use
       id="use3397"
       xlink:href="#path2987"
       x="0"
       y="0"
       width="744.09448"
       height="1052.3622"
       transform="translate(1307.3944,254.58152)" />
    <use
       id="use3399"
       xlink:href="#path2987"
       x="0"
       y="0"
       width="744.09448"
       height="1052.3622"
       transform="translate(1088.7613,188.57526)" />
    <use
       id="use3401"
       xlink:href="#path2987"
       x="0"
       y="0"
       width="744.09448"
       height="1052.3622"
       transform="translate(888.54178,386.26946)" />
    <use
       id="use3403"
       xlink:href="#path2987"
       x="0"
       y="0"
       width="744.09448"
       height="1052.3622"
       transform="translate(783.63109,512.58203)" />
    <use
       id="use3405"
       xlink:href="#path2987"
       x="0"
       y="0"
       width="744.09448"
       height="1052.3622"
       transform="translate(611.81428,578.66676)" />
    <use
       id="use3407"
       xlink:href="#path2987"
       x="0"
       y="0"
       width="744.09448"
       height="1052.3622"
       transform="translate(530.17138,664.18903)" />
    <use
       id="use3409"
       xlink:href="#path2987"
       x="0"
       y="0"
       width="744.09448"
       height="1052.3622"
       transform="translate(631.00894,881.93758)" />
    <use
       id="use3411"
       xlink:href="#path2987"
       x="0"
       y="0"
       width="744.09448"
       height="1052.3622"
       transform="translate(818.22836,916.04818)" />
    <use
       id="use3413"
       xlink:href="#path2987"
       x="0"
       y="0"
       width="744.09448"
       height="1052.3622"
       transform="translate(1351.7655,683.82899)" />
    <use
       id="use3415"
       xlink:href="#path2987"
       x="0"
       y="0"
       width="744.09448"
       height="1052.3622"
       transform="translate(1367.539,524.53534)" />
    <use
       id="use3417"
       xlink:href="#path2987"
       x="0"
       y="0"
       width="744.09448"
       height="1052.3622"
       transform="translate(1412.8819,452.32789)" />
    <use
       id="use3419"
       xlink:href="#path2987"
       x="0"
       y="0"
       width="744.09448"
       height="1052.3622"
       transform="translate(1268.1823,516.3761)" />
    <use
       id="use3421"
       xlink:href="#path2987"
       x="0"
       y="0"
       width="744.09448"
       height="1052.3622"
       transform="translate(1300.6594,464.10716)" />
    <use
       id="use3423"
       xlink:href="#path2987"
       x="0"
       y="0"
       width="744.09448"
       height="1052.3622"
       transform="translate(1358.8794,640.80007)" />
    <use
       id="use3425"
       xlink:href="#path2987"
       x="0"
       y="0"
       width="744.09448"
       height="1052.3622"
       transform="translate(1239.2984,752.50163)" />
    <use
       id="use3427"
       xlink:href="#path2987"
       x="0"
       y="0"
       width="744.09448"
       height="1052.3622"
       transform="translate(1182.1591,733.84832)" />
    <use
       id="use3429"
       xlink:href="#path2987"
       x="0"
       y="0"
       width="744.09448"
       height="1052.3622"
       transform="translate(1215.4501,891.46017)" />
    <use
       id="use3431"
       xlink:href="#path2987"
       x="0"
       y="0"
       width="744.09448"
       height="1052.3622"
       transform="translate(1350.1123,868.43268)" />
    <use
       id="use3433"
       xlink:href="#path2987"
       x="0"
       y="0"
       width="744.09448"
       height="1052.3622"
       transform="translate(1395.722,946.83532)" />
    <use
       id="use3435"
       xlink:href="#path2987"
       x="0"
       y="0"
       width="744.09448"
       height="1052.3622"
       transform="translate(1494.1404,988.41632)" />
    <use
       id="use3437"
       xlink:href="#path2987"
       x="0"
       y="0"
       width="744.09448"
       height="1052.3622"
       transform="translate(1600.6104,749.20357)" />
    <use
       id="use3439"
       xlink:href="#path2987"
       x="0"
       y="0"
       width="744.09448"
       height="1052.3622"
       transform="translate(1742.122,732.72165)" />
    <use
       id="use3441"
       xlink:href="#path2987"
       x="0"
       y="0"
       width="744.09448"
       height="1052.3622"
       transform="translate(1747.5788,518.83929)" />
    <use
       id="use3443"
       xlink:href="#path2987"
       x="0"
       y="0"
       width="744.09448"
       height="1052.3622"
       transform="translate(1794.3673,602.35734)" />
    <use
       id="use3445"
       xlink:href="#path2987"
       x="0"
       y="0"
       width="744.09448"
       height="1052.3622"
       transform="translate(1782.3369,428.30748)" />
    <use
       id="use3466"
       xlink:href="#path2987"
       x="0"
       y="0"
       width="744.09448"
       height="1052.3622"
       transform="translate(1388.043,783.03563)" />
  </g>
</svg>
